<?xml version="1.0" encoding="UTF-8"?><svg id="Layer_2" xmlns="http://www.w3.org/2000/svg" viewBox="0 0 472.8 475.88"><g><path d="M219.53,201.31c-2.25-7.86-3.12-16.28-1.22-24.24,1.91-7.95,6.84-15.39,14.1-19.17,7.69-4,17.58-3.36,24.7,1.6,7.11,4.96,11.13,14.02,10.04,22.62-1,7.86-5.78,14.65-10.2,21.23-4.42,6.58-8.76,13.81-8.71,21.73,0-.74-17.84-1.52-19.92-3.23-2.3-1.9-3.43-6.35-4.57-9-1.62-3.77-3.09-7.61-4.22-11.56Z" fill="#72a9b0"/><path d="M215.71,270.37c-5.86,5.71-12.85,10.48-20.75,12.58-7.91,2.1-16.79,1.28-23.56-3.31-7.17-4.87-11.31-13.88-10.32-22.49,.99-8.61,7.06-16.45,15.15-19.57,7.4-2.85,15.64-1.87,23.53-1.1,7.89,.76,16.31,1.16,23.26-2.65-.66,.35,7.13,16.43,6.61,19.06-.58,2.92-3.96,6.03-5.75,8.3-2.55,3.22-5.23,6.33-8.17,9.2Z" fill="#72a9b0"/><path d="M276.61,236.29c7.99,1.74,15.82,4.95,21.93,10.4s10.32,13.31,10.21,21.49c-.11,8.67-5.36,17.08-13.09,21-7.74,3.92-17.62,3.17-24.68-1.86-6.45-4.6-10.17-12.02-13.88-19.03-3.71-7.01-8.02-14.25-15.03-17.96,.66,.35,9.78-15,12.27-16.02,2.76-1.13,7.22-.02,10.09,.23,4.09,.35,8.16,.88,12.18,1.75Z" fill="#72a9b0"/><circle cx="237.75" cy="236.5" r="26.25" fill="#72a9b0"/><circle cx="238.01" cy="237.9" r="43.67" fill="none" stroke="#72a9b0" stroke-linecap="round" stroke-miterlimit="10" stroke-width="4.4"/></g><circle cx="237.6" cy="237.2" r="17.63" fill="#ffd696"/></svg>