<?xml version="1.0" encoding="UTF-8"?><svg id="Layer_1" xmlns="http://www.w3.org/2000/svg" viewBox="0 0 288 289.88"><circle cx="146.2" cy="145.94" r="113.78" fill="#212a5f"/><g><circle cx="145.31" cy="144.67" r="70.27" fill="#465ea7"/><path d="M214.95,174.54h3.07c4.07,0,7.37,3.3,7.37,7.37v18.18h-17.81v-18.18c0-4.07,3.3-7.37,7.37-7.37Z" transform="translate(493.42 114.76) rotate(124.45)" fill="#72a9b0" stroke="#72a9b0" stroke-miterlimit="10" stroke-width="8.78"/><circle cx="145.31" cy="144.67" r="70.27" fill="#465ea7" stroke="#72a9b0" stroke-miterlimit="10" stroke-width="12.05"/><circle cx="146.82" cy="145.04" r="68.63" fill="none" stroke="#102b58" stroke-miterlimit="10" stroke-width="11.77"/><circle cx="145.31" cy="144.67" r="70.27" fill="none" stroke="#72a9b0" stroke-miterlimit="10" stroke-width="12.05"/></g><g><path d="M137.26,116.41s34.87-6.95,36.35,28.76" fill="none" stroke="#ffd696" stroke-linecap="round" stroke-miterlimit="10" stroke-width="2.61"/><path d="M129.42,120.15s-21.59,12.6-9.77,38.5c9.12,18.68,32.41,14.51,32.41,14.51" fill="none" stroke="#ffd696" stroke-linecap="round" stroke-miterlimit="10" stroke-width="2.61"/><path d="M173.05,153.13s-3.52,12.58-14.4,17.27" fill="none" stroke="#ffd696" stroke-linecap="round" stroke-miterlimit="10" stroke-width="2.61"/><path d="M178.33,114.42s18.71,14.48,8.93,46.28c-7.3,21.76-36.24,35.15-57.84,25.94" fill="none" stroke="#ffd696" stroke-linecap="round" stroke-miterlimit="10" stroke-width="3.26"/><path d="M166.66,105.29s-24.25-14.43-48.4,3.3c-24.16,17.73-19.64,52.7-9.73,61.81" fill="none" stroke="#ffd696" stroke-linecap="round" stroke-miterlimit="10" stroke-width="3.26"/><path d="M122.42,183.2s-5.39-3.37-7.54-5.58" fill="none" stroke="#ffd696" stroke-linecap="round" stroke-miterlimit="10" stroke-width="3.26"/></g><path d="M85.01,149.11s-6.79,5.43-13.93,1.63c-4.9-2.61-10.21-.8-13.06,.59-1.99,.97-3.71,2.87-4.73,5.62-1.39,3.73-1.73,9.47,4.39,15.83,.62,.65,1.2,1.41,1.73,2.24,3.96,6.22,3.49,9.54,3.49,9.54" fill="none" stroke="#3e72b3" stroke-linecap="round" stroke-miterlimit="10" stroke-width="2.31"/><path d="M68.1,182.36l-8.13,2.71c-.7,.23-1.26,.78-1.5,1.47l-2.81,7.9c-.19,.54-.18,1.14,.03,1.68l5.88,15.05c.45,1.16,1.72,1.78,2.92,1.43l15.75-4.67c1.26-.37,1.99-1.69,1.63-2.96l-4.46-15.82c-.13-.47-.4-.88-.78-1.19l-6.22-5.18c-.64-.53-1.51-.7-2.3-.43Z" fill="#3e72b3"/></svg>