<svg width="379" height="302" viewBox="0 0 379 302" fill="none" xmlns="http://www.w3.org/2000/svg">
<path d="M71.3624 139.364C83.1899 155.833 68.0371 168.155 58.9823 172.258C44.4941 178.824 43.8443 172.568 32.0025 168.111C22.529 164.546 24.9994 153.459 27.4188 148.361C17.9571 135.185 30.4089 124.451 37.8176 120.731C46.6575 103.629 59.054 112.2 64.1472 118.623C75.2053 117.978 73.5649 132.182 71.3624 139.364Z" fill="#FEFAE2" stroke="#5C91D4" stroke-width="5"/>
<path d="M277.672 250.633C263.051 257.381 253.773 237.512 250.961 226.733C254.335 226.733 265.488 223.921 270.643 222.516C279.078 229.076 292.293 243.885 277.672 250.633Z" fill="#FFE2CA" stroke="#5C91D4" stroke-width="5"/>
<path d="M91.6323 245.01C106.253 251.759 115.532 231.889 118.344 221.111C114.97 221.111 103.816 218.299 98.6616 216.893C90.2264 223.454 77.0113 238.262 91.6323 245.01Z" fill="#FFE2CA" stroke="#5C91D4" stroke-width="5"/>
<path d="M355.993 155.08C378.551 139.887 358.679 103.731 345.923 87.5527L287.516 114.986L303.628 155.08C311.684 161.411 333.436 170.274 355.993 155.08Z" fill="#FFE2CA" stroke="#5C91D4" stroke-width="5"/>
<path d="M297.746 66.1378C279.799 55.8847 269.328 81.8603 266.335 96.1297C252.049 113.222 267.883 122.347 277.587 124.772C285.144 130.026 304.569 113.296 313.337 104.275C323.565 107.313 338.161 95.4635 344.181 89.1592C351.258 88.5255 360.104 87.7334 358.5 68.1102C357.218 52.4115 342.232 58.0363 334.899 62.811C324.964 45.9105 305.99 57.987 297.746 66.1378Z" fill="#FEFAE2" stroke="#5C91D4" stroke-width="5"/>
<path d="M199.341 70.435C250.91 49.441 278.749 94.8358 286.223 120.158C299.022 118.355 307.208 122.845 312.51 129.826C320.211 139.965 321.828 155.358 322.658 164.356C350.685 205.791 286.223 215.459 282.02 215.459C259.599 238.94 238.58 223.746 231.573 223.746C215.878 241.426 185.784 228.912 172.238 219.704L164.31 223.746C155.139 232.14 135.249 231.479 116.666 227.124C109.737 225.5 102.989 223.363 97.0474 220.99C84.8361 216.114 79.4522 203.068 79.4522 198.616C37.2742 191.586 50.3351 152.846 64.8155 140.875C49.1209 106.622 94.7101 94.3755 119.467 92.5339C129.556 46.1261 176.92 58.4647 199.341 70.435Z" fill="#FEFAE2" stroke="#5C91D4" stroke-width="5"/>
<path d="M324.078 155.034C346.572 140.413 322.672 115.67 305.802 112.858L294.555 119.887C315.924 115.388 323.141 141.912 324.078 155.034Z" fill="#FFF7DF" stroke="#5C91D4" stroke-width="5"/>
<ellipse cx="343.688" cy="118.782" rx="4.77205" ry="10.9075" transform="rotate(-19.8238 343.688 118.782)" fill="#5C91D4"/>
</svg>
